<?xml version="1.0" encoding="UTF-8"?>
<svg width="43px" height="49px" viewBox="0 0 43 49" version="1.1" xmlns="http://www.w3.org/2000/svg" xmlns:xlink="http://www.w3.org/1999/xlink">
    <title>Group Copy 12</title>
    <g id="Page-1" stroke="none" stroke-width="1" fill="none" fill-rule="evenodd">
        <g id="Group-Copy-12" transform="translate(21.500000, 24.500000) scale(-1, 1) translate(-21.500000, -24.500000) " fill-rule="nonzero">
            <g id="Group-Copy">
                <path d="M1.09790837,22.0540119 L16.0973505,37.4782504 C17.0388447,38.4806585 18.4330557,38.8826759 19.7441173,38.5297869 C21.0551789,38.1768979 22.0790594,37.1240203 22.4222296,35.7758284 C22.7653997,34.4276364 22.3744542,32.9939403 21.3996533,32.0257821 L9.05136255,19.3277778 L21.3996533,6.62977342 C22.3744542,5.66161529 22.7653997,4.22791913 22.4222296,2.87972719 C22.0790594,1.53153526 21.0551789,0.478657607 19.7441173,0.125768611 C18.4330557,-0.227120385 17.0388447,0.174897017 16.0973505,1.17730511 L1.09790837,16.6015436 C-0.365969455,18.1073343 -0.365969455,20.5482212 1.09790837,22.0540119 Z" id="Path-Copy" fill="#15B6B0"></path>
                <path d="M26.9026495,11.5217496 C25.9611553,10.5193415 24.5669443,10.1173241 23.2558827,10.4702131 C21.9448211,10.8231021 20.9209406,11.8759797 20.5777704,13.2241716 C20.2346003,14.5723636 20.6255458,16.0060597 21.6003467,16.9742179 L33.9486375,29.6722222 L21.6003467,42.3702266 C20.6255458,43.3383847 20.2346003,44.7720809 20.5777704,46.1202728 C20.9209406,47.4684647 21.9448211,48.5213424 23.2558827,48.8742314 C24.5669443,49.2271204 25.9611553,48.825103 26.9026495,47.8226949 L41.9020916,32.3984564 C43.3659695,30.8926657 43.3659695,28.4517788 41.9020916,26.9459881 L26.9026495,11.5217496 Z" id="Path-Copy-2" fill="#20C943"></path>
            </g>
        </g>
    </g>
</svg>